<mxfile host="Electron" agent="Mozilla/5.0 (Windows NT 10.0; Win64; x64) AppleWebKit/537.36 (KHTML, like Gecko) draw.io/27.0.9 Chrome/134.0.6998.205 Electron/35.4.0 Safari/537.36" version="27.0.9">
  <diagram name="Page-1" id="_DqWGIVqYXaFJJ7VEHYY">
    <mxGraphModel dx="1426" dy="849" grid="1" gridSize="10" guides="1" tooltips="1" connect="1" arrows="1" fold="1" page="1" pageScale="1" pageWidth="850" pageHeight="1100" math="0" shadow="0">
      <root>
        <mxCell id="0" />
        <mxCell id="1" parent="0" />
        <mxCell id="riECNroFM7x9kYckdZe7-2" value="&lt;b&gt;&lt;font style=&quot;font-size: 17px;&quot;&gt;Bronze Layer&lt;/font&gt;&lt;/b&gt;" style="rounded=1;whiteSpace=wrap;html=1;fillColor=#ffe6cc;strokeColor=#d79b00;" parent="1" vertex="1">
          <mxGeometry x="200" y="110" width="160" height="60" as="geometry" />
        </mxCell>
        <mxCell id="riECNroFM7x9kYckdZe7-3" value="&lt;b&gt;&lt;font style=&quot;font-size: 17px;&quot;&gt;Gold Layer&lt;/font&gt;&lt;/b&gt;" style="rounded=1;whiteSpace=wrap;html=1;fillColor=#fff2cc;strokeColor=#d6b656;" parent="1" vertex="1">
          <mxGeometry x="640" y="110" width="160" height="60" as="geometry" />
        </mxCell>
        <mxCell id="riECNroFM7x9kYckdZe7-4" value="&lt;b&gt;&lt;font style=&quot;font-size: 18px;&quot;&gt;Silver Layer&lt;/font&gt;&lt;/b&gt;" style="rounded=1;whiteSpace=wrap;html=1;fillColor=#f5f5f5;fontColor=#333333;strokeColor=#666666;" parent="1" vertex="1">
          <mxGeometry x="425" y="110" width="160" height="60" as="geometry" />
        </mxCell>
        <mxCell id="riECNroFM7x9kYckdZe7-6" value="" style="rounded=0;whiteSpace=wrap;html=1;fillColor=none;dashed=1;" parent="1" vertex="1">
          <mxGeometry x="30" y="140" width="140" height="460" as="geometry" />
        </mxCell>
        <mxCell id="riECNroFM7x9kYckdZe7-9" value="&lt;div&gt;&lt;br&gt;&lt;/div&gt;&lt;div&gt;&lt;br&gt;&lt;/div&gt;" style="rounded=1;whiteSpace=wrap;html=1;fillColor=#ffe6cc;strokeColor=#d79b00;opacity=40;sketch=1;curveFitting=1;jiggle=2;" parent="1" vertex="1">
          <mxGeometry x="200" y="180" width="160" height="420" as="geometry" />
        </mxCell>
        <mxCell id="riECNroFM7x9kYckdZe7-5" value="&lt;b&gt;&lt;font style=&quot;font-size: 17px;&quot;&gt;Sources&lt;/font&gt;&lt;/b&gt;" style="rounded=1;whiteSpace=wrap;html=1;fillColor=default;" parent="1" vertex="1">
          <mxGeometry x="40" y="110" width="120" height="60" as="geometry" />
        </mxCell>
        <mxCell id="riECNroFM7x9kYckdZe7-10" value="" style="rounded=1;whiteSpace=wrap;html=1;fillColor=#f5f5f5;fontColor=#333333;strokeColor=#666666;opacity=40;glass=0;sketch=1;curveFitting=1;jiggle=2;" parent="1" vertex="1">
          <mxGeometry x="425" y="180" width="160" height="420" as="geometry" />
        </mxCell>
        <mxCell id="riECNroFM7x9kYckdZe7-11" value="" style="rounded=1;whiteSpace=wrap;html=1;fillColor=#fff2cc;strokeColor=#d6b656;opacity=40;shadow=0;sketch=1;curveFitting=1;jiggle=2;" parent="1" vertex="1">
          <mxGeometry x="640" y="180" width="160" height="420" as="geometry" />
        </mxCell>
        <mxCell id="riECNroFM7x9kYckdZe7-12" value="&lt;font style=&quot;font-size: 19px;&quot;&gt;Data Flow Diagram&lt;/font&gt;" style="text;html=1;align=center;verticalAlign=middle;resizable=0;points=[];autosize=1;strokeColor=none;fillColor=none;fontStyle=1" parent="1" vertex="1">
          <mxGeometry x="30" y="15" width="190" height="40" as="geometry" />
        </mxCell>
        <mxCell id="riECNroFM7x9kYckdZe7-18" value="" style="edgeStyle=orthogonalEdgeStyle;rounded=0;orthogonalLoop=1;jettySize=auto;html=1;" parent="1" source="riECNroFM7x9kYckdZe7-13" target="riECNroFM7x9kYckdZe7-17" edge="1">
          <mxGeometry relative="1" as="geometry" />
        </mxCell>
        <mxCell id="riECNroFM7x9kYckdZe7-21" style="edgeStyle=orthogonalEdgeStyle;rounded=0;orthogonalLoop=1;jettySize=auto;html=1;" parent="1" source="riECNroFM7x9kYckdZe7-13" target="riECNroFM7x9kYckdZe7-16" edge="1">
          <mxGeometry relative="1" as="geometry" />
        </mxCell>
        <mxCell id="riECNroFM7x9kYckdZe7-30" style="edgeStyle=orthogonalEdgeStyle;rounded=0;orthogonalLoop=1;jettySize=auto;html=1;" parent="1" source="riECNroFM7x9kYckdZe7-13" target="riECNroFM7x9kYckdZe7-15" edge="1">
          <mxGeometry relative="1" as="geometry" />
        </mxCell>
        <mxCell id="riECNroFM7x9kYckdZe7-13" value="&lt;b&gt;CRM&lt;/b&gt;" style="image;aspect=fixed;html=1;points=[];align=center;fontSize=12;image=img/lib/azure2/general/Folder_Blank.svg;" parent="1" vertex="1">
          <mxGeometry x="65.5" y="240" width="69" height="56.00000000000001" as="geometry" />
        </mxCell>
        <mxCell id="riECNroFM7x9kYckdZe7-31" style="edgeStyle=orthogonalEdgeStyle;rounded=0;orthogonalLoop=1;jettySize=auto;html=1;entryX=0;entryY=0.5;entryDx=0;entryDy=0;" parent="1" source="riECNroFM7x9kYckdZe7-14" target="riECNroFM7x9kYckdZe7-29" edge="1">
          <mxGeometry relative="1" as="geometry" />
        </mxCell>
        <mxCell id="riECNroFM7x9kYckdZe7-32" style="edgeStyle=orthogonalEdgeStyle;rounded=0;orthogonalLoop=1;jettySize=auto;html=1;" parent="1" source="riECNroFM7x9kYckdZe7-14" target="riECNroFM7x9kYckdZe7-28" edge="1">
          <mxGeometry relative="1" as="geometry" />
        </mxCell>
        <mxCell id="riECNroFM7x9kYckdZe7-33" style="edgeStyle=orthogonalEdgeStyle;rounded=0;orthogonalLoop=1;jettySize=auto;html=1;" parent="1" source="riECNroFM7x9kYckdZe7-14" target="riECNroFM7x9kYckdZe7-27" edge="1">
          <mxGeometry relative="1" as="geometry" />
        </mxCell>
        <mxCell id="riECNroFM7x9kYckdZe7-14" value="&lt;b&gt;ERP&lt;/b&gt;" style="image;aspect=fixed;html=1;points=[];align=center;fontSize=12;image=img/lib/azure2/general/Folder_Blank.svg;" parent="1" vertex="1">
          <mxGeometry x="65.5" y="436.26" width="69" height="56.00000000000001" as="geometry" />
        </mxCell>
        <mxCell id="ZDzTaXgKv14L6Qq7EfTy-13" style="edgeStyle=orthogonalEdgeStyle;rounded=0;orthogonalLoop=1;jettySize=auto;html=1;entryX=0;entryY=0.5;entryDx=0;entryDy=0;" edge="1" parent="1" source="riECNroFM7x9kYckdZe7-15" target="ZDzTaXgKv14L6Qq7EfTy-1">
          <mxGeometry relative="1" as="geometry" />
        </mxCell>
        <mxCell id="riECNroFM7x9kYckdZe7-15" value="&lt;b&gt;crm_sales_details&lt;/b&gt;" style="rounded=1;whiteSpace=wrap;html=1;fillColor=#ffe6cc;strokeColor=#d79b00;" parent="1" vertex="1">
          <mxGeometry x="210" y="213.75" width="140" height="26.25" as="geometry" />
        </mxCell>
        <mxCell id="ZDzTaXgKv14L6Qq7EfTy-14" style="edgeStyle=orthogonalEdgeStyle;rounded=0;orthogonalLoop=1;jettySize=auto;html=1;" edge="1" parent="1" source="riECNroFM7x9kYckdZe7-16" target="ZDzTaXgKv14L6Qq7EfTy-2">
          <mxGeometry relative="1" as="geometry" />
        </mxCell>
        <mxCell id="riECNroFM7x9kYckdZe7-16" value="&lt;b&gt;crm_cust_info&lt;/b&gt;" style="rounded=1;whiteSpace=wrap;html=1;fillColor=#ffe6cc;strokeColor=#d79b00;" parent="1" vertex="1">
          <mxGeometry x="210" y="254.88" width="140" height="26.25" as="geometry" />
        </mxCell>
        <mxCell id="ZDzTaXgKv14L6Qq7EfTy-15" style="edgeStyle=orthogonalEdgeStyle;rounded=0;orthogonalLoop=1;jettySize=auto;html=1;entryX=0;entryY=0.5;entryDx=0;entryDy=0;" edge="1" parent="1" source="riECNroFM7x9kYckdZe7-17" target="ZDzTaXgKv14L6Qq7EfTy-3">
          <mxGeometry relative="1" as="geometry" />
        </mxCell>
        <mxCell id="riECNroFM7x9kYckdZe7-17" value="&lt;b&gt;crm_prd_info&lt;/b&gt;" style="rounded=1;whiteSpace=wrap;html=1;fillColor=#ffe6cc;strokeColor=#d79b00;" parent="1" vertex="1">
          <mxGeometry x="210" y="296" width="140" height="26.25" as="geometry" />
        </mxCell>
        <mxCell id="ZDzTaXgKv14L6Qq7EfTy-16" style="edgeStyle=orthogonalEdgeStyle;rounded=0;orthogonalLoop=1;jettySize=auto;html=1;" edge="1" parent="1" source="riECNroFM7x9kYckdZe7-27" target="ZDzTaXgKv14L6Qq7EfTy-7">
          <mxGeometry relative="1" as="geometry" />
        </mxCell>
        <mxCell id="riECNroFM7x9kYckdZe7-27" value="&lt;b&gt;erp_cust_az12&lt;/b&gt;" style="rounded=1;whiteSpace=wrap;html=1;fillColor=#ffe6cc;strokeColor=#d79b00;" parent="1" vertex="1">
          <mxGeometry x="210" y="410" width="140" height="26.25" as="geometry" />
        </mxCell>
        <mxCell id="ZDzTaXgKv14L6Qq7EfTy-17" style="edgeStyle=orthogonalEdgeStyle;rounded=0;orthogonalLoop=1;jettySize=auto;html=1;" edge="1" parent="1" source="riECNroFM7x9kYckdZe7-28" target="ZDzTaXgKv14L6Qq7EfTy-8">
          <mxGeometry relative="1" as="geometry" />
        </mxCell>
        <mxCell id="riECNroFM7x9kYckdZe7-28" value="&lt;b&gt;erp__loc_a101&lt;/b&gt;" style="rounded=1;whiteSpace=wrap;html=1;fillColor=#ffe6cc;strokeColor=#d79b00;" parent="1" vertex="1">
          <mxGeometry x="210" y="451.13" width="140" height="26.25" as="geometry" />
        </mxCell>
        <mxCell id="ZDzTaXgKv14L6Qq7EfTy-18" style="edgeStyle=orthogonalEdgeStyle;rounded=0;orthogonalLoop=1;jettySize=auto;html=1;" edge="1" parent="1" source="riECNroFM7x9kYckdZe7-29" target="ZDzTaXgKv14L6Qq7EfTy-9">
          <mxGeometry relative="1" as="geometry" />
        </mxCell>
        <mxCell id="riECNroFM7x9kYckdZe7-29" value="&lt;b&gt;erp_px_cat_g1v2&lt;/b&gt;" style="rounded=1;whiteSpace=wrap;html=1;fillColor=#ffe6cc;strokeColor=#d79b00;" parent="1" vertex="1">
          <mxGeometry x="210" y="492.25" width="140" height="26.25" as="geometry" />
        </mxCell>
        <mxCell id="ZDzTaXgKv14L6Qq7EfTy-19" style="edgeStyle=orthogonalEdgeStyle;rounded=0;orthogonalLoop=1;jettySize=auto;html=1;" edge="1" parent="1" source="ZDzTaXgKv14L6Qq7EfTy-1" target="ZDzTaXgKv14L6Qq7EfTy-10">
          <mxGeometry relative="1" as="geometry" />
        </mxCell>
        <mxCell id="ZDzTaXgKv14L6Qq7EfTy-1" value="&lt;b&gt;crm_sales_details&lt;/b&gt;" style="rounded=1;whiteSpace=wrap;html=1;fillColor=#f5f5f5;strokeColor=#666666;fontColor=#333333;" vertex="1" parent="1">
          <mxGeometry x="435" y="213.75" width="140" height="26.25" as="geometry" />
        </mxCell>
        <mxCell id="ZDzTaXgKv14L6Qq7EfTy-20" style="edgeStyle=orthogonalEdgeStyle;rounded=0;orthogonalLoop=1;jettySize=auto;html=1;entryX=0;entryY=0.25;entryDx=0;entryDy=0;" edge="1" parent="1" source="ZDzTaXgKv14L6Qq7EfTy-2" target="ZDzTaXgKv14L6Qq7EfTy-11">
          <mxGeometry relative="1" as="geometry" />
        </mxCell>
        <mxCell id="ZDzTaXgKv14L6Qq7EfTy-2" value="&lt;b&gt;crm_cust_info&lt;/b&gt;" style="rounded=1;whiteSpace=wrap;html=1;fillColor=#f5f5f5;strokeColor=#666666;fontColor=#333333;" vertex="1" parent="1">
          <mxGeometry x="435" y="254.88" width="140" height="26.25" as="geometry" />
        </mxCell>
        <mxCell id="ZDzTaXgKv14L6Qq7EfTy-21" style="edgeStyle=orthogonalEdgeStyle;rounded=0;orthogonalLoop=1;jettySize=auto;html=1;entryX=0;entryY=0.25;entryDx=0;entryDy=0;" edge="1" parent="1" source="ZDzTaXgKv14L6Qq7EfTy-3" target="ZDzTaXgKv14L6Qq7EfTy-11">
          <mxGeometry relative="1" as="geometry" />
        </mxCell>
        <mxCell id="ZDzTaXgKv14L6Qq7EfTy-3" value="&lt;b&gt;crm_prd_info&lt;/b&gt;" style="rounded=1;whiteSpace=wrap;html=1;fillColor=#f5f5f5;strokeColor=#666666;fontColor=#333333;" vertex="1" parent="1">
          <mxGeometry x="435" y="296" width="140" height="26.25" as="geometry" />
        </mxCell>
        <mxCell id="ZDzTaXgKv14L6Qq7EfTy-22" style="edgeStyle=orthogonalEdgeStyle;rounded=0;orthogonalLoop=1;jettySize=auto;html=1;entryX=0;entryY=0.25;entryDx=0;entryDy=0;" edge="1" parent="1" source="ZDzTaXgKv14L6Qq7EfTy-7" target="ZDzTaXgKv14L6Qq7EfTy-11">
          <mxGeometry relative="1" as="geometry" />
        </mxCell>
        <mxCell id="ZDzTaXgKv14L6Qq7EfTy-7" value="&lt;b&gt;erp_cust_az12&lt;/b&gt;" style="rounded=1;whiteSpace=wrap;html=1;fillColor=#f5f5f5;strokeColor=#666666;fontColor=#333333;" vertex="1" parent="1">
          <mxGeometry x="435" y="410" width="140" height="26.25" as="geometry" />
        </mxCell>
        <mxCell id="ZDzTaXgKv14L6Qq7EfTy-23" style="edgeStyle=orthogonalEdgeStyle;rounded=0;orthogonalLoop=1;jettySize=auto;html=1;entryX=0;entryY=0.25;entryDx=0;entryDy=0;" edge="1" parent="1" source="ZDzTaXgKv14L6Qq7EfTy-8" target="ZDzTaXgKv14L6Qq7EfTy-11">
          <mxGeometry relative="1" as="geometry" />
        </mxCell>
        <mxCell id="ZDzTaXgKv14L6Qq7EfTy-8" value="&lt;b&gt;erp__loc_a101&lt;/b&gt;" style="rounded=1;whiteSpace=wrap;html=1;fillColor=#f5f5f5;strokeColor=#666666;fontColor=#333333;" vertex="1" parent="1">
          <mxGeometry x="435" y="451.13" width="140" height="26.25" as="geometry" />
        </mxCell>
        <mxCell id="ZDzTaXgKv14L6Qq7EfTy-9" value="&lt;b&gt;erp_px_cat_g1v2&lt;/b&gt;" style="rounded=1;whiteSpace=wrap;html=1;fillColor=#f5f5f5;strokeColor=#666666;fontColor=#333333;" vertex="1" parent="1">
          <mxGeometry x="435" y="492.25" width="140" height="26.25" as="geometry" />
        </mxCell>
        <mxCell id="ZDzTaXgKv14L6Qq7EfTy-10" value="&lt;b&gt;fact_sales&lt;/b&gt;" style="rounded=1;whiteSpace=wrap;html=1;fillColor=#fff2cc;strokeColor=#d6b656;" vertex="1" parent="1">
          <mxGeometry x="650" y="228.63" width="140" height="26.25" as="geometry" />
        </mxCell>
        <mxCell id="ZDzTaXgKv14L6Qq7EfTy-11" value="&lt;b&gt;dim_customers&lt;/b&gt;" style="rounded=1;whiteSpace=wrap;html=1;fillColor=#fff2cc;strokeColor=#d6b656;" vertex="1" parent="1">
          <mxGeometry x="650" y="356.88" width="140" height="26.25" as="geometry" />
        </mxCell>
        <mxCell id="ZDzTaXgKv14L6Qq7EfTy-12" value="&lt;b&gt;dim_products&lt;/b&gt;" style="rounded=1;whiteSpace=wrap;html=1;fillColor=#fff2cc;strokeColor=#d6b656;" vertex="1" parent="1">
          <mxGeometry x="650" y="436.26" width="140" height="30" as="geometry" />
        </mxCell>
        <mxCell id="ZDzTaXgKv14L6Qq7EfTy-28" value="" style="endArrow=classic;html=1;rounded=0;" edge="1" parent="1">
          <mxGeometry width="50" height="50" relative="1" as="geometry">
            <mxPoint x="575" y="310" as="sourcePoint" />
            <mxPoint x="650" y="451" as="targetPoint" />
          </mxGeometry>
        </mxCell>
        <mxCell id="ZDzTaXgKv14L6Qq7EfTy-29" value="" style="endArrow=classic;html=1;rounded=0;entryX=0;entryY=0.5;entryDx=0;entryDy=0;exitX=1;exitY=0.5;exitDx=0;exitDy=0;" edge="1" parent="1" source="ZDzTaXgKv14L6Qq7EfTy-9" target="ZDzTaXgKv14L6Qq7EfTy-12">
          <mxGeometry width="50" height="50" relative="1" as="geometry">
            <mxPoint x="610" y="500" as="sourcePoint" />
            <mxPoint x="678" y="628" as="targetPoint" />
          </mxGeometry>
        </mxCell>
      </root>
    </mxGraphModel>
  </diagram>
</mxfile>
